<svg width="150" height="150" viewBox="0 0 150 150" fill="none" xmlns="http://www.w3.org/2000/svg">
<path d="M75 137.5C83.2091 137.51 91.3393 135.898 98.9235 132.757C106.508 129.615 113.396 125.006 119.194 119.194C125.006 113.396 129.615 106.508 132.757 98.9235C135.898 91.3393 137.51 83.2091 137.5 75C137.51 66.7909 135.898 58.6607 132.757 51.0765C129.615 43.4923 125.006 36.6036 119.194 30.8062C113.396 24.9942 106.508 20.385 98.9235 17.2435C91.3393 14.1019 83.2091 12.4899 75 12.5C66.791 12.4899 58.6608 14.1019 51.0766 17.2435C43.4924 20.385 36.6037 24.9942 30.8063 30.8062C24.9943 36.6036 20.3851 43.4923 17.2435 51.0765C14.102 58.6607 12.4899 66.7909 12.5 75C12.4899 83.2091 14.102 91.3393 17.2435 98.9235C20.3851 106.508 24.9943 113.396 30.8063 119.194C36.6037 125.006 43.4924 129.615 51.0766 132.757C58.6608 135.898 66.791 137.51 75 137.5Z" stroke="#7AD040" stroke-width="12.5" stroke-linejoin="round"/>
<path d="M50 75L68.75 93.75L106.25 56.25" stroke="#7AD040" stroke-width="12.5" stroke-linecap="round" stroke-linejoin="round"/>
</svg>
