<svg width="106" height="80" viewBox="0 0 106 80" fill="none" xmlns="http://www.w3.org/2000/svg">
<path d="M33.2499 64.0626L11.5624 42.3751C10.3938 41.2064 8.80885 40.5499 7.15618 40.5499C5.50352 40.5499 3.91854 41.2064 2.74993 42.3751C1.58132 43.5437 0.924805 45.1286 0.924805 46.7813C0.924805 47.5996 1.08599 48.4099 1.39914 49.1659C1.7123 49.922 2.1713 50.6089 2.74993 51.1876L28.8749 77.3126C31.3124 79.7501 35.2499 79.7501 37.6874 77.3126L103.812 11.1876C104.981 10.0189 105.638 8.43397 105.638 6.78131C105.638 5.12864 104.981 3.54367 103.812 2.37506C102.644 1.20645 101.059 0.549927 99.4062 0.549927C97.7535 0.549927 96.1685 1.20645 94.9999 2.37506L33.2499 64.0626Z" fill="white"/>
</svg>
