<svg width="150" height="150" viewBox="0 0 150 150" fill="none" xmlns="http://www.w3.org/2000/svg">
<path d="M83.6689 21.4063L123.45 47.925C124.306 48.4958 125.008 49.269 125.493 50.1761C125.979 51.0833 126.233 52.0962 126.233 53.125C126.233 54.1538 125.979 55.1668 125.493 56.0739C125.008 56.981 124.306 57.7542 123.45 58.325L83.6689 84.85C81.1018 86.5618 78.0855 87.4753 75.0001 87.4753C71.9147 87.4753 68.8984 86.5618 66.3314 84.85L26.5501 58.325C25.6941 57.7542 24.9923 56.981 24.5069 56.0739C24.0214 55.1668 23.7675 54.1538 23.7675 53.125C23.7675 52.0962 24.0214 51.0833 24.5069 50.1761C24.9923 49.269 25.6941 48.4958 26.5501 47.925L66.3314 21.4063C68.8984 19.6945 71.9147 18.781 75.0001 18.781C78.0855 18.781 81.1018 19.6945 83.6689 21.4063ZM125.163 76.2C124.235 77.6846 123.007 78.9579 121.556 79.9375L83.7439 105.463C81.1613 107.206 78.1163 108.138 75.0001 108.138C71.8839 108.138 68.8389 107.206 66.2564 105.463L28.4439 79.9375C26.1808 78.4108 24.4797 76.1852 23.6005 73.6007C22.7214 71.0163 22.7124 68.215 23.5751 65.625L66.3314 94.125C68.7317 95.7246 71.528 96.6285 74.4105 96.7366C77.293 96.8447 80.1492 96.1528 82.6626 94.7375L83.6626 94.125L126.419 65.625C127.001 67.3714 127.19 69.2249 126.973 71.053C126.756 72.8811 126.138 74.6386 125.163 76.2ZM125.163 96.5125C124.235 97.9971 123.007 99.2704 121.556 100.25L83.7439 125.775C81.1613 127.519 78.1163 128.451 75.0001 128.451C71.8839 128.451 68.8389 127.519 66.2564 125.775L28.4439 100.25C26.1808 98.7233 24.4797 96.4977 23.6005 93.9132C22.7214 91.3288 22.7124 88.5275 23.5751 85.9375L66.3314 114.438C68.7317 116.037 71.528 116.941 74.4105 117.049C77.293 117.157 80.1492 116.465 82.6626 115.05L83.6626 114.438L126.419 85.9375C127.001 87.6839 127.19 89.5374 126.973 91.3655C126.756 93.1936 126.138 94.9511 125.163 96.5125Z" fill="#007BFF"/>
</svg>
